<?xml version="1.0" encoding="UTF-8" standalone="no"?>
<!DOCTYPE svg PUBLIC "-//W3C//DTD SVG 1.1//EN"
 "http://www.w3.org/Graphics/SVG/1.1/DTD/svg11.dtd">
<!-- Generated by graphviz version 2.47.0 (20210316.0004)
 -->
<!-- Title: dependencies Pages: 1 -->
<svg width="6008pt" height="284pt"
 viewBox="0.00 0.00 6008.00 284.00" xmlns="http://www.w3.org/2000/svg" xmlns:xlink="http://www.w3.org/1999/xlink">
<g id="graph0" class="graph" transform="scale(1 1) rotate(0) translate(4 280)">
<title>dependencies</title>
<polygon fill="white" stroke="transparent" points="-4,4 -4,-280 6004,-280 6004,4 -4,4"/>
<text text-anchor="start" x="2979.01" y="-42.4" font-family="Times-12" font-weight="bold" font-size="14.00">Legend</text>
<polygon fill="#ffffb3" stroke="transparent" points="2766,-10 2766,-30 2786,-30 2786,-10 2766,-10"/>
<text text-anchor="start" x="2789.63" y="-15.4" font-family="Times-12" font-size="14.00"> &#160;Declarations</text>
<polygon fill="#8dd3c7" stroke="transparent" points="2879,-10 2879,-30 2899,-30 2899,-10 2879,-10"/>
<text text-anchor="start" x="2902.73" y="-15.4" font-family="Times-12" font-size="14.00"> &#160;Module</text>
<polygon fill="#80b1d3" stroke="transparent" points="2965,-10 2965,-30 2985,-30 2985,-10 2965,-10"/>
<text text-anchor="start" x="2988.78" y="-15.4" font-family="Times-12" font-size="14.00"> &#160;Bootstrap</text>
<polygon fill="#fdb462" stroke="transparent" points="3062,-10 3062,-30 3082,-30 3082,-10 3062,-10"/>
<text text-anchor="start" x="3085.67" y="-15.4" font-family="Times-12" font-size="14.00"> &#160;Providers</text>
<polygon fill="#fb8072" stroke="transparent" points="3158,-10 3158,-30 3178,-30 3178,-10 3158,-10"/>
<text text-anchor="start" x="3181.73" y="-15.4" font-family="Times-12" font-size="14.00"> &#160;Exports</text>
<g id="clust1" class="cluster">
<title>cluster_AppModule</title>
<polygon fill="none" stroke="black" stroke-dasharray="1,5" points="8,-70 8,-268 5992,-268 5992,-70 8,-70"/>
</g>
<g id="clust2" class="cluster">
<title>cluster_AppModule_declarations</title>
<polygon fill="none" stroke="black" points="406,-78 406,-130 5984,-130 5984,-78 406,-78"/>
</g>
<g id="clust38" class="cluster">
<title>cluster_AppModule_imports</title>
<polygon fill="none" stroke="black" points="254,-78 254,-130 398,-130 398,-78 254,-78"/>
</g>
<g id="clust40" class="cluster">
<title>cluster_AppModule_bootstrap</title>
<polygon fill="none" stroke="black" points="2953,-208 2953,-260 3077,-260 3077,-208 2953,-208"/>
</g>
<g id="clust41" class="cluster">
<title>cluster_AppModule_providers</title>
<polygon fill="none" stroke="black" points="16,-78 16,-130 246,-130 246,-78 16,-78"/>
</g>
<!-- ActividadAddComponent -->
<g id="node1" class="node">
<title>ActividadAddComponent</title>
<polygon fill="#ffffb3" stroke="black" points="5976.15,-122 5815.85,-122 5815.85,-86 5976.15,-86 5976.15,-122"/>
<text text-anchor="middle" x="5896" y="-99.8" font-family="Times,serif" font-size="14.00">ActividadAddComponent</text>
</g>
<!-- AppModule -->
<g id="node36" class="node">
<title>AppModule</title>
<polygon fill="#8dd3c7" stroke="black" points="3056.66,-187 3053.66,-191 3032.66,-191 3029.66,-187 2973.34,-187 2973.34,-151 3056.66,-151 3056.66,-187"/>
<text text-anchor="middle" x="3015" y="-164.8" font-family="Times,serif" font-size="14.00">AppModule</text>
</g>
<!-- ActividadAddComponent&#45;&gt;AppModule -->
<g id="edge1" class="edge">
<title>ActividadAddComponent&#45;&gt;AppModule</title>
<path fill="none" stroke="black" d="M5896,-122.2C5896,-146.36 5896,-186 5896,-186 5896,-186 3066.84,-186 3066.84,-186"/>
<polygon fill="black" stroke="black" points="3066.84,-182.5 3056.84,-186 3066.84,-189.5 3066.84,-182.5"/>
</g>
<!-- ActividadComponent -->
<g id="node2" class="node">
<title>ActividadComponent</title>
<polygon fill="#ffffb3" stroke="black" points="5797.04,-122 5660.96,-122 5660.96,-86 5797.04,-86 5797.04,-122"/>
<text text-anchor="middle" x="5729" y="-99.8" font-family="Times,serif" font-size="14.00">ActividadComponent</text>
</g>
<!-- ActividadComponent&#45;&gt;AppModule -->
<g id="edge2" class="edge">
<title>ActividadComponent&#45;&gt;AppModule</title>
<path fill="none" stroke="black" d="M5729,-122.15C5729,-145.76 5729,-184 5729,-184 5729,-184 3066.81,-184 3066.81,-184"/>
<polygon fill="black" stroke="black" points="3066.81,-180.5 3056.81,-184 3066.81,-187.5 3066.81,-180.5"/>
</g>
<!-- ActividadDocenteComponent -->
<g id="node3" class="node">
<title>ActividadDocenteComponent</title>
<polygon fill="#ffffb3" stroke="black" points="5642.68,-122 5459.32,-122 5459.32,-86 5642.68,-86 5642.68,-122"/>
<text text-anchor="middle" x="5551" y="-99.8" font-family="Times,serif" font-size="14.00">ActividadDocenteComponent</text>
</g>
<!-- ActividadDocenteComponent&#45;&gt;AppModule -->
<g id="edge3" class="edge">
<title>ActividadDocenteComponent&#45;&gt;AppModule</title>
<path fill="none" stroke="black" d="M5551,-122.09C5551,-145.13 5551,-182 5551,-182 5551,-182 3066.9,-182 3066.9,-182"/>
<polygon fill="black" stroke="black" points="3066.9,-178.5 3056.9,-182 3066.9,-185.5 3066.9,-178.5"/>
</g>
<!-- ActividadUpdateComponent -->
<g id="node4" class="node">
<title>ActividadUpdateComponent</title>
<polygon fill="#ffffb3" stroke="black" points="5441.47,-122 5264.53,-122 5264.53,-86 5441.47,-86 5441.47,-122"/>
<text text-anchor="middle" x="5353" y="-99.8" font-family="Times,serif" font-size="14.00">ActividadUpdateComponent</text>
</g>
<!-- ActividadUpdateComponent&#45;&gt;AppModule -->
<g id="edge4" class="edge">
<title>ActividadUpdateComponent&#45;&gt;AppModule</title>
<path fill="none" stroke="black" d="M5353,-122.01C5353,-144.49 5353,-180 5353,-180 5353,-180 3066.82,-180 3066.82,-180"/>
<polygon fill="black" stroke="black" points="3066.82,-176.5 3056.82,-180 3066.82,-183.5 3066.82,-176.5"/>
</g>
<!-- ActualizarDatosComponent -->
<g id="node5" class="node">
<title>ActualizarDatosComponent</title>
<polygon fill="#ffffb3" stroke="black" points="5246.29,-122 5073.71,-122 5073.71,-86 5246.29,-86 5246.29,-122"/>
<text text-anchor="middle" x="5160" y="-99.8" font-family="Times,serif" font-size="14.00">ActualizarDatosComponent</text>
</g>
<!-- ActualizarDatosComponent&#45;&gt;AppModule -->
<g id="edge5" class="edge">
<title>ActualizarDatosComponent&#45;&gt;AppModule</title>
<path fill="none" stroke="black" d="M5160,-122.29C5160,-144.21 5160,-178 5160,-178 5160,-178 3066.89,-178 3066.89,-178"/>
<polygon fill="black" stroke="black" points="3066.89,-174.5 3056.89,-178 3066.89,-181.5 3066.89,-174.5"/>
</g>
<!-- ActualizarDatosPorfesoresComponent -->
<g id="node6" class="node">
<title>ActualizarDatosPorfesoresComponent</title>
<polygon fill="#ffffb3" stroke="black" points="5055.87,-122 4824.13,-122 4824.13,-86 5055.87,-86 5055.87,-122"/>
<text text-anchor="middle" x="4940" y="-99.8" font-family="Times,serif" font-size="14.00">ActualizarDatosPorfesoresComponent</text>
</g>
<!-- ActualizarDatosPorfesoresComponent&#45;&gt;AppModule -->
<g id="edge6" class="edge">
<title>ActualizarDatosPorfesoresComponent&#45;&gt;AppModule</title>
<path fill="none" stroke="black" d="M4940,-122.17C4940,-143.5 4940,-176 4940,-176 4940,-176 3067,-176 3067,-176"/>
<polygon fill="black" stroke="black" points="3067,-172.5 3057,-176 3067,-179.5 3067,-172.5"/>
</g>
<!-- AppComponent -->
<g id="node7" class="node">
<title>AppComponent</title>
<polygon fill="#ffffb3" stroke="black" points="4806.94,-122 4701.06,-122 4701.06,-86 4806.94,-86 4806.94,-122"/>
<text text-anchor="middle" x="4754" y="-99.8" font-family="Times,serif" font-size="14.00">AppComponent</text>
</g>
<!-- AppComponent&#45;&gt;AppModule -->
<g id="edge7" class="edge">
<title>AppComponent&#45;&gt;AppModule</title>
<path fill="none" stroke="black" d="M4754,-122.03C4754,-142.77 4754,-174 4754,-174 4754,-174 3066.7,-174 3066.7,-174"/>
<polygon fill="black" stroke="black" points="3066.7,-170.5 3056.7,-174 3066.7,-177.5 3066.7,-170.5"/>
</g>
<!-- BlogCRUDComponent -->
<g id="node8" class="node">
<title>BlogCRUDComponent</title>
<polygon fill="#ffffb3" stroke="black" points="4683.95,-122 4536.05,-122 4536.05,-86 4683.95,-86 4683.95,-122"/>
<text text-anchor="middle" x="4610" y="-99.8" font-family="Times,serif" font-size="14.00">BlogCRUDComponent</text>
</g>
<!-- BlogCRUDComponent&#45;&gt;AppModule -->
<g id="edge8" class="edge">
<title>BlogCRUDComponent&#45;&gt;AppModule</title>
<path fill="none" stroke="black" d="M4610,-122.22C4610,-142.37 4610,-172 4610,-172 4610,-172 3066.84,-172 3066.84,-172"/>
<polygon fill="black" stroke="black" points="3066.84,-168.5 3056.84,-172 3066.84,-175.5 3066.84,-168.5"/>
</g>
<!-- BlogComponent -->
<g id="node9" class="node">
<title>BlogComponent</title>
<polygon fill="#ffffb3" stroke="black" points="4518.06,-122 4409.94,-122 4409.94,-86 4518.06,-86 4518.06,-122"/>
<text text-anchor="middle" x="4464" y="-99.8" font-family="Times,serif" font-size="14.00">BlogComponent</text>
</g>
<!-- BlogComponent&#45;&gt;AppModule -->
<g id="edge9" class="edge">
<title>BlogComponent&#45;&gt;AppModule</title>
<path fill="none" stroke="black" d="M4464,-122.03C4464,-141.58 4464,-170 4464,-170 4464,-170 3066.8,-170 3066.8,-170"/>
<polygon fill="black" stroke="black" points="3066.8,-166.5 3056.8,-170 3066.8,-173.5 3066.8,-166.5"/>
</g>
<!-- BlogControlsComponent -->
<g id="node10" class="node">
<title>BlogControlsComponent</title>
<polygon fill="#ffffb3" stroke="black" points="4391.28,-122 4234.72,-122 4234.72,-86 4391.28,-86 4391.28,-122"/>
<text text-anchor="middle" x="4313" y="-99.8" font-family="Times,serif" font-size="14.00">BlogControlsComponent</text>
</g>
<!-- BlogControlsComponent&#45;&gt;AppModule -->
<g id="edge10" class="edge">
<title>BlogControlsComponent&#45;&gt;AppModule</title>
<path fill="none" stroke="black" d="M4313,-122.11C4313,-141.34 4313,-169 4313,-169 4313,-169 3066.72,-169 3066.72,-169"/>
<polygon fill="black" stroke="black" points="3066.72,-165.5 3056.72,-169 3066.72,-172.5 3066.72,-165.5"/>
</g>
<!-- DatosPerfilComponent -->
<g id="node11" class="node">
<title>DatosPerfilComponent</title>
<polygon fill="#ffffb3" stroke="black" points="4216.59,-122 4071.41,-122 4071.41,-86 4216.59,-86 4216.59,-122"/>
<text text-anchor="middle" x="4144" y="-99.8" font-family="Times,serif" font-size="14.00">DatosPerfilComponent</text>
</g>
<!-- DatosPerfilComponent&#45;&gt;AppModule -->
<g id="edge11" class="edge">
<title>DatosPerfilComponent&#45;&gt;AppModule</title>
<path fill="none" stroke="black" d="M4144,-122.22C4144,-140.83 4144,-167 4144,-167 4144,-167 3066.86,-167 3066.86,-167"/>
<polygon fill="black" stroke="black" points="3066.86,-163.5 3056.86,-167 3066.86,-170.5 3066.86,-163.5"/>
</g>
<!-- FooterComponent -->
<g id="node12" class="node">
<title>FooterComponent</title>
<polygon fill="#ffffb3" stroke="black" points="4053.88,-122 3936.12,-122 3936.12,-86 4053.88,-86 4053.88,-122"/>
<text text-anchor="middle" x="3995" y="-99.8" font-family="Times,serif" font-size="14.00">FooterComponent</text>
</g>
<!-- FooterComponent&#45;&gt;AppModule -->
<g id="edge12" class="edge">
<title>FooterComponent&#45;&gt;AppModule</title>
<path fill="none" stroke="black" d="M3995,-122.3C3995,-140.27 3995,-165 3995,-165 3995,-165 3066.8,-165 3066.8,-165"/>
<polygon fill="black" stroke="black" points="3066.8,-161.5 3056.8,-165 3066.8,-168.5 3066.8,-161.5"/>
</g>
<!-- HomeComponent -->
<g id="node13" class="node">
<title>HomeComponent</title>
<polygon fill="#ffffb3" stroke="black" points="3917.55,-122 3802.45,-122 3802.45,-86 3917.55,-86 3917.55,-122"/>
<text text-anchor="middle" x="3860" y="-99.8" font-family="Times,serif" font-size="14.00">HomeComponent</text>
</g>
<!-- HomeComponent&#45;&gt;AppModule -->
<g id="edge13" class="edge">
<title>HomeComponent&#45;&gt;AppModule</title>
<path fill="none" stroke="black" d="M3860,-122.02C3860,-139.37 3860,-163 3860,-163 3860,-163 3066.9,-163 3066.9,-163"/>
<polygon fill="black" stroke="black" points="3066.9,-159.5 3056.9,-163 3066.9,-166.5 3066.9,-159.5"/>
</g>
<!-- IMCComponent -->
<g id="node14" class="node">
<title>IMCComponent</title>
<polygon fill="#ffffb3" stroke="black" points="3783.77,-122 3676.23,-122 3676.23,-86 3783.77,-86 3783.77,-122"/>
<text text-anchor="middle" x="3730" y="-99.8" font-family="Times,serif" font-size="14.00">IMCComponent</text>
</g>
<!-- IMCComponent&#45;&gt;AppModule -->
<g id="edge14" class="edge">
<title>IMCComponent&#45;&gt;AppModule</title>
<path fill="none" stroke="black" d="M3730,-122.04C3730,-138.73 3730,-161 3730,-161 3730,-161 3066.79,-161 3066.79,-161"/>
<polygon fill="black" stroke="black" points="3066.79,-157.5 3056.79,-161 3066.79,-164.5 3066.79,-157.5"/>
</g>
<!-- LoginComponent -->
<g id="node15" class="node">
<title>LoginComponent</title>
<polygon fill="#ffffb3" stroke="black" points="3658.28,-122 3543.72,-122 3543.72,-86 3658.28,-86 3658.28,-122"/>
<text text-anchor="middle" x="3601" y="-99.8" font-family="Times,serif" font-size="14.00">LoginComponent</text>
</g>
<!-- LoginComponent&#45;&gt;AppModule -->
<g id="edge15" class="edge">
<title>LoginComponent&#45;&gt;AppModule</title>
<path fill="none" stroke="black" d="M3601,-122.01C3601,-138.05 3601,-159 3601,-159 3601,-159 3066.67,-159 3066.67,-159"/>
<polygon fill="black" stroke="black" points="3066.67,-155.5 3056.67,-159 3066.67,-162.5 3066.67,-155.5"/>
</g>
<!-- MisRutinasComponent -->
<g id="node16" class="node">
<title>MisRutinasComponent</title>
<polygon fill="#ffffb3" stroke="black" points="3525.89,-122 3380.11,-122 3380.11,-86 3525.89,-86 3525.89,-122"/>
<text text-anchor="middle" x="3453" y="-99.8" font-family="Times,serif" font-size="14.00">MisRutinasComponent</text>
</g>
<!-- MisRutinasComponent&#45;&gt;AppModule -->
<g id="edge16" class="edge">
<title>MisRutinasComponent&#45;&gt;AppModule</title>
<path fill="none" stroke="black" d="M3453,-122.24C3453,-137.57 3453,-157 3453,-157 3453,-157 3067,-157 3067,-157"/>
<polygon fill="black" stroke="black" points="3067,-153.5 3057,-157 3067,-160.5 3067,-153.5"/>
</g>
<!-- NavbarComponent -->
<g id="node17" class="node">
<title>NavbarComponent</title>
<polygon fill="#ffffb3" stroke="black" points="3362.03,-122 3239.97,-122 3239.97,-86 3362.03,-86 3362.03,-122"/>
<text text-anchor="middle" x="3301" y="-99.8" font-family="Times,serif" font-size="14.00">NavbarComponent</text>
</g>
<!-- NavbarComponent&#45;&gt;AppModule -->
<g id="edge17" class="edge">
<title>NavbarComponent&#45;&gt;AppModule</title>
<path fill="none" stroke="black" d="M3301,-122.12C3301,-136.78 3301,-155 3301,-155 3301,-155 3066.89,-155 3066.89,-155"/>
<polygon fill="black" stroke="black" points="3066.89,-151.5 3056.89,-155 3066.89,-158.5 3066.89,-151.5"/>
</g>
<!-- NosotrosComponent -->
<g id="node18" class="node">
<title>NosotrosComponent</title>
<polygon fill="#ffffb3" stroke="black" points="3221.88,-122 3090.12,-122 3090.12,-86 3221.88,-86 3221.88,-122"/>
<text text-anchor="middle" x="3156" y="-99.8" font-family="Times,serif" font-size="14.00">NosotrosComponent</text>
</g>
<!-- NosotrosComponent&#45;&gt;AppModule -->
<g id="edge18" class="edge">
<title>NosotrosComponent&#45;&gt;AppModule</title>
<path fill="none" stroke="black" d="M3156,-122.25C3156,-136.18 3156,-153 3156,-153 3156,-153 3066.92,-153 3066.92,-153"/>
<polygon fill="black" stroke="black" points="3066.92,-149.5 3056.92,-153 3066.92,-156.5 3066.92,-149.5"/>
</g>
<!-- PagosComponent -->
<g id="node19" class="node">
<title>PagosComponent</title>
<polygon fill="#ffffb3" stroke="black" points="3072.27,-122 2957.73,-122 2957.73,-86 3072.27,-86 3072.27,-122"/>
<text text-anchor="middle" x="3015" y="-99.8" font-family="Times,serif" font-size="14.00">PagosComponent</text>
</g>
<!-- PagosComponent&#45;&gt;AppModule -->
<g id="edge19" class="edge">
<title>PagosComponent&#45;&gt;AppModule</title>
<path fill="none" stroke="black" d="M3015,-122.11C3015,-122.11 3015,-140.99 3015,-140.99"/>
<polygon fill="black" stroke="black" points="3011.5,-140.99 3015,-150.99 3018.5,-140.99 3011.5,-140.99"/>
</g>
<!-- ProfesoresComponent -->
<g id="node20" class="node">
<title>ProfesoresComponent</title>
<polygon fill="#ffffb3" stroke="black" points="2939.42,-122 2798.58,-122 2798.58,-86 2939.42,-86 2939.42,-122"/>
<text text-anchor="middle" x="2869" y="-99.8" font-family="Times,serif" font-size="14.00">ProfesoresComponent</text>
</g>
<!-- ProfesoresComponent&#45;&gt;AppModule -->
<g id="edge20" class="edge">
<title>ProfesoresComponent&#45;&gt;AppModule</title>
<path fill="none" stroke="black" d="M2869,-122.25C2869,-136.18 2869,-153 2869,-153 2869,-153 2963.16,-153 2963.16,-153"/>
<polygon fill="black" stroke="black" points="2963.16,-156.5 2973.16,-153 2963.16,-149.5 2963.16,-156.5"/>
</g>
<!-- RolAddComponent -->
<g id="node21" class="node">
<title>RolAddComponent</title>
<polygon fill="#ffffb3" stroke="black" points="2780.67,-122 2655.33,-122 2655.33,-86 2780.67,-86 2780.67,-122"/>
<text text-anchor="middle" x="2718" y="-99.8" font-family="Times,serif" font-size="14.00">RolAddComponent</text>
</g>
<!-- RolAddComponent&#45;&gt;AppModule -->
<g id="edge21" class="edge">
<title>RolAddComponent&#45;&gt;AppModule</title>
<path fill="none" stroke="black" d="M2718,-122.12C2718,-136.78 2718,-155 2718,-155 2718,-155 2963.08,-155 2963.08,-155"/>
<polygon fill="black" stroke="black" points="2963.08,-158.5 2973.08,-155 2963.08,-151.5 2963.08,-158.5"/>
</g>
<!-- RolComponent -->
<g id="node22" class="node">
<title>RolComponent</title>
<polygon fill="#ffffb3" stroke="black" points="2636.56,-122 2535.44,-122 2535.44,-86 2636.56,-86 2636.56,-122"/>
<text text-anchor="middle" x="2586" y="-99.8" font-family="Times,serif" font-size="14.00">RolComponent</text>
</g>
<!-- RolComponent&#45;&gt;AppModule -->
<g id="edge22" class="edge">
<title>RolComponent&#45;&gt;AppModule</title>
<path fill="none" stroke="black" d="M2586,-122.24C2586,-137.57 2586,-157 2586,-157 2586,-157 2963.08,-157 2963.08,-157"/>
<polygon fill="black" stroke="black" points="2963.08,-160.5 2973.08,-157 2963.08,-153.5 2963.08,-160.5"/>
</g>
<!-- RolUpdateComponent -->
<g id="node23" class="node">
<title>RolUpdateComponent</title>
<polygon fill="#ffffb3" stroke="black" points="2516.99,-122 2375.01,-122 2375.01,-86 2516.99,-86 2516.99,-122"/>
<text text-anchor="middle" x="2446" y="-99.8" font-family="Times,serif" font-size="14.00">RolUpdateComponent</text>
</g>
<!-- RolUpdateComponent&#45;&gt;AppModule -->
<g id="edge23" class="edge">
<title>RolUpdateComponent&#45;&gt;AppModule</title>
<path fill="none" stroke="black" d="M2446,-122.01C2446,-138.05 2446,-159 2446,-159 2446,-159 2963.16,-159 2963.16,-159"/>
<polygon fill="black" stroke="black" points="2963.16,-162.5 2973.16,-159 2963.16,-155.5 2963.16,-162.5"/>
</g>
<!-- RutinasAddComponent -->
<g id="node24" class="node">
<title>RutinasAddComponent</title>
<polygon fill="#ffffb3" stroke="black" points="2357.22,-122 2208.78,-122 2208.78,-86 2357.22,-86 2357.22,-122"/>
<text text-anchor="middle" x="2283" y="-99.8" font-family="Times,serif" font-size="14.00">RutinasAddComponent</text>
</g>
<!-- RutinasAddComponent&#45;&gt;AppModule -->
<g id="edge24" class="edge">
<title>RutinasAddComponent&#45;&gt;AppModule</title>
<path fill="none" stroke="black" d="M2283,-122.04C2283,-138.73 2283,-161 2283,-161 2283,-161 2963.28,-161 2963.28,-161"/>
<polygon fill="black" stroke="black" points="2963.28,-164.5 2973.28,-161 2963.28,-157.5 2963.28,-164.5"/>
</g>
<!-- RutinasComponent -->
<g id="node25" class="node">
<title>RutinasComponent</title>
<polygon fill="#ffffb3" stroke="black" points="2191.11,-122 2066.89,-122 2066.89,-86 2191.11,-86 2191.11,-122"/>
<text text-anchor="middle" x="2129" y="-99.8" font-family="Times,serif" font-size="14.00">RutinasComponent</text>
</g>
<!-- RutinasComponent&#45;&gt;AppModule -->
<g id="edge25" class="edge">
<title>RutinasComponent&#45;&gt;AppModule</title>
<path fill="none" stroke="black" d="M2129,-122.02C2129,-139.37 2129,-163 2129,-163 2129,-163 2963.16,-163 2963.16,-163"/>
<polygon fill="black" stroke="black" points="2963.16,-166.5 2973.16,-163 2963.16,-159.5 2963.16,-166.5"/>
</g>
<!-- RutinasPersoAddComponent -->
<g id="node26" class="node">
<title>RutinasPersoAddComponent</title>
<polygon fill="#ffffb3" stroke="black" points="2048.82,-122 1869.18,-122 1869.18,-86 2048.82,-86 2048.82,-122"/>
<text text-anchor="middle" x="1959" y="-99.8" font-family="Times,serif" font-size="14.00">RutinasPersoAddComponent</text>
</g>
<!-- RutinasPersoAddComponent&#45;&gt;AppModule -->
<g id="edge26" class="edge">
<title>RutinasPersoAddComponent&#45;&gt;AppModule</title>
<path fill="none" stroke="black" d="M1959,-122.3C1959,-140.27 1959,-165 1959,-165 1959,-165 2963.28,-165 2963.28,-165"/>
<polygon fill="black" stroke="black" points="2963.28,-168.5 2973.28,-165 2963.28,-161.5 2963.28,-168.5"/>
</g>
<!-- RutinasPersoComponent -->
<g id="node27" class="node">
<title>RutinasPersoComponent</title>
<polygon fill="#ffffb3" stroke="black" points="1851.71,-122 1696.29,-122 1696.29,-86 1851.71,-86 1851.71,-122"/>
<text text-anchor="middle" x="1774" y="-99.8" font-family="Times,serif" font-size="14.00">RutinasPersoComponent</text>
</g>
<!-- RutinasPersoComponent&#45;&gt;AppModule -->
<g id="edge27" class="edge">
<title>RutinasPersoComponent&#45;&gt;AppModule</title>
<path fill="none" stroke="black" d="M1774,-122.22C1774,-140.83 1774,-167 1774,-167 1774,-167 2963,-167 2963,-167"/>
<polygon fill="black" stroke="black" points="2963,-170.5 2973,-167 2963,-163.5 2963,-170.5"/>
</g>
<!-- RutinasPersoUpdateComponent -->
<g id="node28" class="node">
<title>RutinasPersoUpdateComponent</title>
<polygon fill="#ffffb3" stroke="black" points="1678.64,-122 1483.36,-122 1483.36,-86 1678.64,-86 1678.64,-122"/>
<text text-anchor="middle" x="1581" y="-99.8" font-family="Times,serif" font-size="14.00">RutinasPersoUpdateComponent</text>
</g>
<!-- RutinasPersoUpdateComponent&#45;&gt;AppModule -->
<g id="edge28" class="edge">
<title>RutinasPersoUpdateComponent&#45;&gt;AppModule</title>
<path fill="none" stroke="black" d="M1581,-122.11C1581,-141.34 1581,-169 1581,-169 1581,-169 2963.25,-169 2963.25,-169"/>
<polygon fill="black" stroke="black" points="2963.25,-172.5 2973.25,-169 2963.25,-165.5 2963.25,-172.5"/>
</g>
<!-- RutinasUpdateComponent -->
<g id="node29" class="node">
<title>RutinasUpdateComponent</title>
<polygon fill="#ffffb3" stroke="black" points="1465.04,-122 1300.96,-122 1300.96,-86 1465.04,-86 1465.04,-122"/>
<text text-anchor="middle" x="1383" y="-99.8" font-family="Times,serif" font-size="14.00">RutinasUpdateComponent</text>
</g>
<!-- RutinasUpdateComponent&#45;&gt;AppModule -->
<g id="edge29" class="edge">
<title>RutinasUpdateComponent&#45;&gt;AppModule</title>
<path fill="none" stroke="black" d="M1383,-122.03C1383,-141.58 1383,-170 1383,-170 1383,-170 2963.02,-170 2963.02,-170"/>
<polygon fill="black" stroke="black" points="2963.02,-173.5 2973.02,-170 2963.02,-166.5 2963.02,-173.5"/>
</g>
<!-- SigninComponent -->
<g id="node30" class="node">
<title>SigninComponent</title>
<polygon fill="#ffffb3" stroke="black" points="1282.9,-122 1165.1,-122 1165.1,-86 1282.9,-86 1282.9,-122"/>
<text text-anchor="middle" x="1224" y="-99.8" font-family="Times,serif" font-size="14.00">SigninComponent</text>
</g>
<!-- SigninComponent&#45;&gt;AppModule -->
<g id="edge30" class="edge">
<title>SigninComponent&#45;&gt;AppModule</title>
<path fill="none" stroke="black" d="M1224,-122.22C1224,-142.37 1224,-172 1224,-172 1224,-172 2962.93,-172 2962.93,-172"/>
<polygon fill="black" stroke="black" points="2962.93,-175.5 2972.93,-172 2962.93,-168.5 2962.93,-175.5"/>
</g>
<!-- TipoBlogComponent -->
<g id="node31" class="node">
<title>TipoBlogComponent</title>
<polygon fill="#ffffb3" stroke="black" points="1147.5,-122 1012.5,-122 1012.5,-86 1147.5,-86 1147.5,-122"/>
<text text-anchor="middle" x="1080" y="-99.8" font-family="Times,serif" font-size="14.00">TipoBlogComponent</text>
</g>
<!-- TipoBlogComponent&#45;&gt;AppModule -->
<g id="edge31" class="edge">
<title>TipoBlogComponent&#45;&gt;AppModule</title>
<path fill="none" stroke="black" d="M1080,-122.03C1080,-142.77 1080,-174 1080,-174 1080,-174 2963.24,-174 2963.24,-174"/>
<polygon fill="black" stroke="black" points="2963.24,-177.5 2973.24,-174 2963.24,-170.5 2963.24,-177.5"/>
</g>
<!-- UbicacionesComponent -->
<g id="node32" class="node">
<title>UbicacionesComponent</title>
<polygon fill="#ffffb3" stroke="black" points="994.02,-122 843.98,-122 843.98,-86 994.02,-86 994.02,-122"/>
<text text-anchor="middle" x="919" y="-99.8" font-family="Times,serif" font-size="14.00">UbicacionesComponent</text>
</g>
<!-- UbicacionesComponent&#45;&gt;AppModule -->
<g id="edge32" class="edge">
<title>UbicacionesComponent&#45;&gt;AppModule</title>
<path fill="none" stroke="black" d="M919,-122.17C919,-143.5 919,-176 919,-176 919,-176 2963.13,-176 2963.13,-176"/>
<polygon fill="black" stroke="black" points="2963.13,-179.5 2973.13,-176 2963.13,-172.5 2963.13,-179.5"/>
</g>
<!-- UserComponent -->
<g id="node33" class="node">
<title>UserComponent</title>
<polygon fill="#ffffb3" stroke="black" points="825.76,-122 718.24,-122 718.24,-86 825.76,-86 825.76,-122"/>
<text text-anchor="middle" x="772" y="-99.8" font-family="Times,serif" font-size="14.00">UserComponent</text>
</g>
<!-- UserComponent&#45;&gt;AppModule -->
<g id="edge33" class="edge">
<title>UserComponent&#45;&gt;AppModule</title>
<path fill="none" stroke="black" d="M772,-122.29C772,-144.21 772,-178 772,-178 772,-178 2963.18,-178 2963.18,-178"/>
<polygon fill="black" stroke="black" points="2963.18,-181.5 2973.18,-178 2963.18,-174.5 2963.18,-181.5"/>
</g>
<!-- UsuarioBanComponent -->
<g id="node34" class="node">
<title>UsuarioBanComponent</title>
<polygon fill="#ffffb3" stroke="black" points="700.2,-122 551.8,-122 551.8,-86 700.2,-86 700.2,-122"/>
<text text-anchor="middle" x="626" y="-99.8" font-family="Times,serif" font-size="14.00">UsuarioBanComponent</text>
</g>
<!-- UsuarioBanComponent&#45;&gt;AppModule -->
<g id="edge34" class="edge">
<title>UsuarioBanComponent&#45;&gt;AppModule</title>
<path fill="none" stroke="black" d="M626,-122.01C626,-144.49 626,-180 626,-180 626,-180 2963.28,-180 2963.28,-180"/>
<polygon fill="black" stroke="black" points="2963.28,-183.5 2973.28,-180 2963.28,-176.5 2963.28,-183.5"/>
</g>
<!-- VentasComponent -->
<g id="node35" class="node">
<title>VentasComponent</title>
<polygon fill="#ffffb3" stroke="black" points="534.2,-122 413.8,-122 413.8,-86 534.2,-86 534.2,-122"/>
<text text-anchor="middle" x="474" y="-99.8" font-family="Times,serif" font-size="14.00">VentasComponent</text>
</g>
<!-- VentasComponent&#45;&gt;AppModule -->
<g id="edge35" class="edge">
<title>VentasComponent&#45;&gt;AppModule</title>
<path fill="none" stroke="black" d="M474,-122.09C474,-145.13 474,-182 474,-182 474,-182 2963.28,-182 2963.28,-182"/>
<polygon fill="black" stroke="black" points="2963.28,-185.5 2973.28,-182 2963.28,-178.5 2963.28,-185.5"/>
</g>
<!-- AppComponent  -->
<g id="node38" class="node">
<title>AppComponent </title>
<polygon fill="#80b1d3" stroke="black" points="3069.44,-252 2960.56,-252 2960.56,-216 3069.44,-216 3069.44,-252"/>
<text text-anchor="middle" x="3015" y="-229.8" font-family="Times,serif" font-size="14.00">AppComponent </text>
</g>
<!-- AppModule&#45;&gt;AppComponent  -->
<g id="edge37" class="edge">
<title>AppModule&#45;&gt;AppComponent </title>
<path fill="none" stroke="black" stroke-dasharray="1,5" d="M3015,-187.11C3015,-187.11 3015,-205.99 3015,-205.99"/>
<polygon fill="black" stroke="black" points="3011.5,-205.99 3015,-215.99 3018.5,-205.99 3011.5,-205.99"/>
</g>
<!-- AppRoutingModule -->
<g id="node37" class="node">
<title>AppRoutingModule</title>
<polygon fill="#8dd3c7" stroke="black" points="390.27,-122 387.27,-126 366.27,-126 363.27,-122 261.73,-122 261.73,-86 390.27,-86 390.27,-122"/>
<text text-anchor="middle" x="326" y="-99.8" font-family="Times,serif" font-size="14.00">AppRoutingModule</text>
</g>
<!-- AppRoutingModule&#45;&gt;AppModule -->
<g id="edge36" class="edge">
<title>AppRoutingModule&#45;&gt;AppModule</title>
<path fill="none" stroke="black" d="M326,-122.15C326,-145.76 326,-184 326,-184 326,-184 2963.3,-184 2963.3,-184"/>
<polygon fill="black" stroke="black" points="2963.3,-187.5 2973.3,-184 2963.3,-180.5 2963.3,-187.5"/>
</g>
<!-- TokenInterceptorService -->
<g id="node39" class="node">
<title>TokenInterceptorService</title>
<ellipse fill="#fdb462" stroke="black" cx="131" cy="-104" rx="107.04" ry="18"/>
<text text-anchor="middle" x="131" y="-99.8" font-family="Times,serif" font-size="14.00">TokenInterceptorService</text>
</g>
<!-- TokenInterceptorService&#45;&gt;AppModule -->
<g id="edge38" class="edge">
<title>TokenInterceptorService&#45;&gt;AppModule</title>
<path fill="none" stroke="black" d="M131,-122.2C131,-146.36 131,-186 131,-186 131,-186 2963.12,-186 2963.12,-186"/>
<polygon fill="black" stroke="black" points="2963.12,-189.5 2973.12,-186 2963.12,-182.5 2963.12,-189.5"/>
</g>
</g>
</svg>
